<svg xmlns="http://www.w3.org/2000/svg" viewBox="0 0 211.13 77"><defs><style>.cls-1,.cls-6{fill:#003893;}.cls-2{font-size:14px;fill:#dc143c;font-family:Gotham-Medium, Gotham;font-weight:500;letter-spacing:0.18em;}.cls-3{letter-spacing:0.17em;}.cls-4{letter-spacing:0.14em;}.cls-5{letter-spacing:0.18em;}.cls-6{font-size:48px;font-family:Gotham-Black, Gotham Black;font-weight:800;}.cls-7{letter-spacing:-0.01em;}.cls-8{letter-spacing:-0.03em;}</style></defs><title>Asset 21</title><g id="Layer_2" data-name="Layer 2"><g id="Layer_1-2" data-name="Layer 1"><path class="cls-1" d="M63.48,52.51C54,56.65,44.46,60.76,35,65a4.58,4.58,0,0,1-4.14,0c-7.29-3.27-14.63-6.46-21.95-9.68C6.12,54,3.31,52.83.21,51.49a12.19,12.19,0,0,0-.16,1.23c0,3,0,5.93,0,8.9,0,1,.47,1.58,1.59,2.06q14.76,6.43,29.46,12.93a3.57,3.57,0,0,0,3.17,0q14.94-6.56,29.92-13c1.2-.52,1.7-1.17,1.71-2.2,0-2.92.11-5.84.15-8.76a4.35,4.35,0,0,0-.29-1c-.86.34-1.56.58-2.23.87"/><path class="cls-1" d="M2.33,11C10.77,7.65,19.16,4.25,27.56.87,28.21.62,28.88.39,30,0c0,18.81-.06,37.3-.09,56.09a26.34,26.34,0,0,1-4.16-1.78,39.73,39.73,0,0,0-7.47-3.09c-2.62-.8-3.55-1.78-3.53-3.62.12-8.88.09-17.76.1-26.65a20.65,20.65,0,0,0-.22-2.1L.11,24.51A8.7,8.7,0,0,1,0,22.62a36,36,0,0,0,.1-8.55C0,12.51.57,11.66,2.33,11"/><path class="cls-1" d="M63.67,11C55.23,7.65,46.84,4.25,38.44.87,37.79.62,37.12.39,36,0c0,18.81.06,37.3.09,56.09,1.14-.43,1.81-.67,2.45-.94,3.35-1.41,6.63-2.92,10-4.23,2-.75,2.68-1.7,2.66-3.32-.12-8.88-.09-17.76-.1-26.65a20.65,20.65,0,0,1,.22-2.1l14.49,5.66c.06-.7.12-1.09.11-1.48,0-3.11-.17-6.22-.1-9.33,0-1.33-.62-2.09-2.23-2.73"/><text class="cls-2" transform="translate(71.49 62.41)">ONLINE <tspan class="cls-3" x="78.34" y="0">S</tspan><tspan class="cls-4" x="89.61" y="0">T</tspan><tspan class="cls-5" x="100.67" y="0">ORE</tspan></text><text class="cls-6" transform="translate(69.66 47.49)"><tspan class="cls-7">R</tspan><tspan class="cls-8" x="33.94" y="0">A</tspan><tspan x="70.8" y="0">UT</tspan></text></g></g></svg>